<svg xmlns="http://www.w3.org/2000/svg" xmlns:xlink="http://www.w3.org/1999/xlink" width="200" zoomAndPan="magnify" viewBox="0 0 150 74.999997" height="100" preserveAspectRatio="xMidYMid meet" version="1.0"><defs><g/><clipPath id="id1"><path d="M 7.5 20.078125 L 39 20.078125 L 39 51.578125 L 7.5 51.578125 Z M 7.5 20.078125 " clip-rule="nonzero"/></clipPath><clipPath id="id2"><path d="M 9.796875 18.417969 L 41.296875 18.417969 L 41.296875 49.917969 L 9.796875 49.917969 Z M 9.796875 18.417969 " clip-rule="nonzero"/></clipPath></defs><rect x="-15" width="180" fill="#ffffff" y="-7.5" height="89.999996" fill-opacity="1"/><rect x="-15" width="180" fill="#ffffff" y="-7.5" height="89.999996" fill-opacity="1"/><rect x="-15" width="180" fill="#ffffff" y="-7.5" height="89.999996" fill-opacity="1"/><rect x="-15" width="180" fill="#ffffff" y="-7.5" height="89.999996" fill-opacity="1"/><g fill="#b7bfc5" fill-opacity="1"><g transform="translate(46.561625, 45.557906)"><g><path d="M 0.90625 0 L 0.90625 -20.609375 L 9.15625 -20.609375 L 9.15625 -16.625 L 5.109375 -16.625 L 5.109375 -12.609375 L 9 -12.609375 L 9 -8.734375 L 5.109375 -8.734375 L 5.109375 -4 L 9.421875 -4 L 9.421875 0 Z M 0.90625 0 "/></g></g></g><g fill="#b7bfc5" fill-opacity="1"><g transform="translate(60.492979, 45.557906)"><g><path d="M 5.796875 0.1875 C 3.929688 0.1875 2.582031 -0.273438 1.75 -1.203125 C 0.914062 -2.128906 0.5 -3.625 0.5 -5.6875 L 0.5 -7.703125 L 4.5625 -7.703125 L 4.5625 -5.125 C 4.5625 -4.101562 4.890625 -3.59375 5.546875 -3.59375 C 5.910156 -3.59375 6.164062 -3.703125 6.3125 -3.921875 C 6.457031 -4.140625 6.53125 -4.503906 6.53125 -5.015625 C 6.53125 -5.679688 6.445312 -6.234375 6.28125 -6.671875 C 6.125 -7.117188 5.921875 -7.488281 5.671875 -7.78125 C 5.421875 -8.082031 4.976562 -8.539062 4.34375 -9.15625 L 2.5625 -10.9375 C 1.1875 -12.28125 0.5 -13.765625 0.5 -15.390625 C 0.5 -17.148438 0.898438 -18.488281 1.703125 -19.40625 C 2.515625 -20.332031 3.695312 -20.796875 5.25 -20.796875 C 7.101562 -20.796875 8.4375 -20.300781 9.25 -19.3125 C 10.070312 -18.332031 10.484375 -16.796875 10.484375 -14.703125 L 6.28125 -14.703125 L 6.265625 -16.125 C 6.265625 -16.394531 6.1875 -16.609375 6.03125 -16.765625 C 5.875 -16.921875 5.660156 -17 5.390625 -17 C 5.078125 -17 4.835938 -16.910156 4.671875 -16.734375 C 4.515625 -16.566406 4.4375 -16.328125 4.4375 -16.015625 C 4.4375 -15.347656 4.820312 -14.65625 5.59375 -13.9375 L 7.984375 -11.625 C 8.546875 -11.082031 9.007812 -10.566406 9.375 -10.078125 C 9.738281 -9.597656 10.03125 -9.023438 10.25 -8.359375 C 10.476562 -7.691406 10.59375 -6.90625 10.59375 -6 C 10.59375 -3.96875 10.222656 -2.425781 9.484375 -1.375 C 8.742188 -0.332031 7.515625 0.1875 5.796875 0.1875 Z M 5.796875 0.1875 "/></g></g></g><g fill="#b7bfc5" fill-opacity="1"><g transform="translate(75.599246, 45.557906)"><g><path d="M 5.796875 0.1875 C 3.929688 0.1875 2.582031 -0.273438 1.75 -1.203125 C 0.914062 -2.128906 0.5 -3.625 0.5 -5.6875 L 0.5 -7.703125 L 4.5625 -7.703125 L 4.5625 -5.125 C 4.5625 -4.101562 4.890625 -3.59375 5.546875 -3.59375 C 5.910156 -3.59375 6.164062 -3.703125 6.3125 -3.921875 C 6.457031 -4.140625 6.53125 -4.503906 6.53125 -5.015625 C 6.53125 -5.679688 6.445312 -6.234375 6.28125 -6.671875 C 6.125 -7.117188 5.921875 -7.488281 5.671875 -7.78125 C 5.421875 -8.082031 4.976562 -8.539062 4.34375 -9.15625 L 2.5625 -10.9375 C 1.1875 -12.28125 0.5 -13.765625 0.5 -15.390625 C 0.5 -17.148438 0.898438 -18.488281 1.703125 -19.40625 C 2.515625 -20.332031 3.695312 -20.796875 5.25 -20.796875 C 7.101562 -20.796875 8.4375 -20.300781 9.25 -19.3125 C 10.070312 -18.332031 10.484375 -16.796875 10.484375 -14.703125 L 6.28125 -14.703125 L 6.265625 -16.125 C 6.265625 -16.394531 6.1875 -16.609375 6.03125 -16.765625 C 5.875 -16.921875 5.660156 -17 5.390625 -17 C 5.078125 -17 4.835938 -16.910156 4.671875 -16.734375 C 4.515625 -16.566406 4.4375 -16.328125 4.4375 -16.015625 C 4.4375 -15.347656 4.820312 -14.65625 5.59375 -13.9375 L 7.984375 -11.625 C 8.546875 -11.082031 9.007812 -10.566406 9.375 -10.078125 C 9.738281 -9.597656 10.03125 -9.023438 10.25 -8.359375 C 10.476562 -7.691406 10.59375 -6.90625 10.59375 -6 C 10.59375 -3.96875 10.222656 -2.425781 9.484375 -1.375 C 8.742188 -0.332031 7.515625 0.1875 5.796875 0.1875 Z M 5.796875 0.1875 "/></g></g></g><g fill="#b7bfc5" fill-opacity="1"><g transform="translate(90.705512, 45.557906)"><g><path d="M 0.90625 0 L 0.90625 -20.609375 L 9.15625 -20.609375 L 9.15625 -16.625 L 5.109375 -16.625 L 5.109375 -12.609375 L 9 -12.609375 L 9 -8.734375 L 5.109375 -8.734375 L 5.109375 -4 L 9.421875 -4 L 9.421875 0 Z M 0.90625 0 "/></g></g></g><g fill="#b7bfc5" fill-opacity="1"><g transform="translate(104.636866, 45.557906)"><g><path d="M 0.90625 0 L 0.90625 -20.609375 L 5.15625 -20.609375 L 7.046875 -10.75 L 7.046875 -20.609375 L 11.03125 -20.609375 L 11.03125 0 L 7 0 L 4.9375 -10.3125 L 4.9375 0 Z M 0.90625 0 "/></g></g></g><g fill="#b7bfc5" fill-opacity="1"><g transform="translate(120.630314, 45.557906)"><g><path d="M 5.703125 0.1875 C 4.203125 0.1875 3 -0.28125 2.09375 -1.21875 C 1.195312 -2.164062 0.75 -3.460938 0.75 -5.109375 L 0.75 -14.609375 C 0.75 -16.648438 1.15625 -18.191406 1.96875 -19.234375 C 2.78125 -20.273438 4.054688 -20.796875 5.796875 -20.796875 C 7.316406 -20.796875 8.539062 -20.378906 9.46875 -19.546875 C 10.394531 -18.710938 10.859375 -17.515625 10.859375 -15.953125 L 10.859375 -12.40625 L 6.765625 -12.40625 L 6.765625 -15.453125 C 6.765625 -16.035156 6.691406 -16.4375 6.546875 -16.65625 C 6.398438 -16.882812 6.148438 -17 5.796875 -17 C 5.429688 -17 5.179688 -16.867188 5.046875 -16.609375 C 4.910156 -16.359375 4.84375 -15.988281 4.84375 -15.5 L 4.84375 -5.15625 C 4.84375 -4.613281 4.921875 -4.21875 5.078125 -3.96875 C 5.242188 -3.71875 5.484375 -3.59375 5.796875 -3.59375 C 6.441406 -3.59375 6.765625 -4.113281 6.765625 -5.15625 L 6.765625 -8.875 L 10.90625 -8.875 L 10.90625 -4.984375 C 10.90625 -1.535156 9.171875 0.1875 5.703125 0.1875 Z M 5.703125 0.1875 "/></g></g></g><g fill="#b7bfc5" fill-opacity="1"><g transform="translate(136.048301, 45.557906)"><g><path d="M 0.90625 0 L 0.90625 -20.609375 L 9.15625 -20.609375 L 9.15625 -16.625 L 5.109375 -16.625 L 5.109375 -12.609375 L 9 -12.609375 L 9 -8.734375 L 5.109375 -8.734375 L 5.109375 -4 L 9.421875 -4 L 9.421875 0 Z M 0.90625 0 "/></g></g></g><g clip-path="url(#id1)"><path fill="#b7bfc5" d="M 7.503906 50.828125 L 7.503906 20.765625 L 7.5 20.765625 C 7.5 20.386719 7.804688 20.082031 8.183594 20.082031 C 8.375 20.082031 8.546875 20.160156 8.671875 20.285156 L 38.730469 50.402344 C 39 50.671875 39 51.105469 38.730469 51.371094 C 38.597656 51.503906 38.425781 51.570312 38.25 51.570312 L 8.183594 51.570312 C 7.804688 51.570312 7.5 51.265625 7.5 50.886719 C 7.5 50.867188 7.5 50.847656 7.503906 50.828125 Z M 7.503906 50.828125 " fill-opacity="1" fill-rule="nonzero"/></g><g clip-path="url(#id2)"><path fill="#b7bfc5" d="M 41.296875 19.167969 L 41.296875 49.230469 C 41.296875 49.609375 40.992188 49.914062 40.613281 49.914062 C 40.421875 49.914062 40.25 49.835938 40.128906 49.710938 L 10.066406 19.59375 C 9.796875 19.324219 9.796875 18.890625 10.066406 18.625 C 10.199219 18.492188 10.375 18.421875 10.546875 18.421875 L 40.613281 18.421875 C 40.992188 18.421875 41.296875 18.730469 41.296875 19.109375 C 41.296875 19.128906 41.296875 19.148438 41.296875 19.167969 Z M 41.296875 19.167969 " fill-opacity="1" fill-rule="nonzero"/></g></svg>