<svg xmlns="http://www.w3.org/2000/svg" xmlns:xlink="http://www.w3.org/1999/xlink" width="200" zoomAndPan="magnify" viewBox="0 0 150 74.999997" height="100" preserveAspectRatio="xMidYMid meet" version="1.0"><defs><g/><clipPath id="id1"><path d="M 9.546875 21 L 36.546875 21 L 36.546875 50.957031 L 9.546875 50.957031 Z M 9.546875 21 " clip-rule="nonzero"/></clipPath></defs><g fill="#b7bfc5" fill-opacity="1"><g transform="translate(41.078611, 44.745394)"><g><path d="M 5.5625 2.5625 C 4.3125 2.5625 3.332031 2.460938 2.625 2.265625 C 1.914062 2.066406 1.21875 1.6875 0.53125 1.125 L 1.96875 -1.296875 C 2.988281 -0.691406 4.003906 -0.390625 5.015625 -0.390625 C 5.671875 -0.390625 6.164062 -0.59375 6.5 -1 C 6.832031 -1.414062 7 -1.984375 7 -2.703125 L 7 -3.671875 C 6.664062 -2.472656 5.78125 -1.875 4.34375 -1.875 C 3.144531 -1.875 2.257812 -2.28125 1.6875 -3.09375 C 1.125 -3.90625 0.84375 -4.992188 0.84375 -6.359375 L 0.84375 -12.953125 C 0.84375 -14.503906 1.101562 -15.691406 1.625 -16.515625 C 2.144531 -17.335938 3.050781 -17.75 4.34375 -17.75 C 5.09375 -17.75 5.6875 -17.5625 6.125 -17.1875 C 6.5625 -16.8125 6.851562 -16.28125 7 -15.59375 L 7 -17.5625 L 11.296875 -17.5625 L 11.296875 -2.96875 C 11.296875 -1.007812 10.835938 0.398438 9.921875 1.265625 C 9.015625 2.128906 7.5625 2.5625 5.5625 2.5625 Z M 6.015625 -5.03125 C 6.671875 -5.03125 7 -5.625 7 -6.8125 L 7 -13.078125 C 7 -13.421875 6.898438 -13.753906 6.703125 -14.078125 C 6.515625 -14.398438 6.28125 -14.5625 6 -14.5625 C 5.625 -14.5625 5.375 -14.425781 5.25 -14.15625 C 5.125 -13.894531 5.0625 -13.535156 5.0625 -13.078125 L 5.0625 -6.8125 C 5.0625 -6.28125 5.125 -5.847656 5.25 -5.515625 C 5.375 -5.191406 5.628906 -5.03125 6.015625 -5.03125 Z M 6.015625 -5.03125 "/></g></g></g><g fill="#b7bfc5" fill-opacity="1"><g transform="translate(57.215938, 44.745394)"><g><path d="M 5.75 0.1875 C 3.945312 0.1875 2.65625 -0.304688 1.875 -1.296875 C 1.09375 -2.285156 0.703125 -3.765625 0.703125 -5.734375 L 0.703125 -12.78125 C 0.703125 -14.394531 1.164062 -15.625 2.09375 -16.46875 C 3.019531 -17.320312 4.3125 -17.75 5.96875 -17.75 C 9.34375 -17.75 11.03125 -16.09375 11.03125 -12.78125 L 11.03125 -11.515625 C 11.03125 -10.234375 11.015625 -9.191406 10.984375 -8.390625 L 4.890625 -8.390625 L 4.890625 -4.984375 C 4.890625 -4.378906 4.953125 -3.90625 5.078125 -3.5625 C 5.210938 -3.21875 5.488281 -3.046875 5.90625 -3.046875 C 6.21875 -3.046875 6.441406 -3.140625 6.578125 -3.328125 C 6.710938 -3.523438 6.789062 -3.742188 6.8125 -3.984375 C 6.84375 -4.234375 6.859375 -4.597656 6.859375 -5.078125 L 6.859375 -6.78125 L 11.03125 -6.78125 L 11.03125 -5.78125 C 11.03125 -3.726562 10.632812 -2.21875 9.84375 -1.25 C 9.050781 -0.289062 7.6875 0.1875 5.75 0.1875 Z M 6.859375 -10.484375 L 6.859375 -12.734375 C 6.859375 -13.992188 6.546875 -14.625 5.921875 -14.625 C 5.222656 -14.625 4.875 -13.992188 4.875 -12.734375 L 4.875 -10.484375 Z M 6.859375 -10.484375 "/></g></g></g><g fill="#b7bfc5" fill-opacity="1"><g transform="translate(72.969619, 44.745394)"><g><path d="M 0.84375 -17.5625 L 5.03125 -17.5625 L 5.03125 -15.328125 C 5.207031 -16.046875 5.507812 -16.628906 5.9375 -17.078125 C 6.375 -17.523438 6.953125 -17.75 7.671875 -17.75 C 8.859375 -17.75 9.734375 -17.382812 10.296875 -16.65625 C 10.867188 -15.925781 11.15625 -14.890625 11.15625 -13.546875 L 11.15625 0 L 7.03125 0 L 7.03125 -13.125 C 7.03125 -13.5 6.953125 -13.820312 6.796875 -14.09375 C 6.648438 -14.375 6.414062 -14.515625 6.09375 -14.515625 C 5.65625 -14.515625 5.367188 -14.316406 5.234375 -13.921875 C 5.097656 -13.523438 5.03125 -13.003906 5.03125 -12.359375 L 5.03125 0 L 0.84375 0 Z M 0.84375 -17.5625 "/></g></g></g><g fill="#b7bfc5" fill-opacity="1"><g transform="translate(88.987055, 44.745394)"><g><path d="M 5.75 0.1875 C 3.945312 0.1875 2.65625 -0.304688 1.875 -1.296875 C 1.09375 -2.285156 0.703125 -3.765625 0.703125 -5.734375 L 0.703125 -12.78125 C 0.703125 -14.394531 1.164062 -15.625 2.09375 -16.46875 C 3.019531 -17.320312 4.3125 -17.75 5.96875 -17.75 C 9.34375 -17.75 11.03125 -16.09375 11.03125 -12.78125 L 11.03125 -11.515625 C 11.03125 -10.234375 11.015625 -9.191406 10.984375 -8.390625 L 4.890625 -8.390625 L 4.890625 -4.984375 C 4.890625 -4.378906 4.953125 -3.90625 5.078125 -3.5625 C 5.210938 -3.21875 5.488281 -3.046875 5.90625 -3.046875 C 6.21875 -3.046875 6.441406 -3.140625 6.578125 -3.328125 C 6.710938 -3.523438 6.789062 -3.742188 6.8125 -3.984375 C 6.84375 -4.234375 6.859375 -4.597656 6.859375 -5.078125 L 6.859375 -6.78125 L 11.03125 -6.78125 L 11.03125 -5.78125 C 11.03125 -3.726562 10.632812 -2.21875 9.84375 -1.25 C 9.050781 -0.289062 7.6875 0.1875 5.75 0.1875 Z M 6.859375 -10.484375 L 6.859375 -12.734375 C 6.859375 -13.992188 6.546875 -14.625 5.921875 -14.625 C 5.222656 -14.625 4.875 -13.992188 4.875 -12.734375 L 4.875 -10.484375 Z M 6.859375 -10.484375 "/></g></g></g><g fill="#b7bfc5" fill-opacity="1"><g transform="translate(104.740737, 44.745394)"><g><path d="M 0.84375 -17.5625 L 5.03125 -17.5625 L 5.03125 -15.609375 C 5.238281 -16.296875 5.601562 -16.828125 6.125 -17.203125 C 6.644531 -17.578125 7.289062 -17.765625 8.0625 -17.765625 L 8.0625 -14.265625 C 7.46875 -14.265625 6.8125 -14.179688 6.09375 -14.015625 C 5.382812 -13.847656 5.03125 -13.65625 5.03125 -13.4375 L 5.03125 0 L 0.84375 0 Z M 0.84375 -17.5625 "/></g></g></g><g fill="#b7bfc5" fill-opacity="1"><g transform="translate(117.041607, 44.745394)"><g><path d="M 0.8125 -18.734375 L 0.8125 -21.65625 L 5.015625 -21.65625 L 5.015625 -18.734375 Z M 0.8125 0 L 0.8125 -17.5625 L 5.015625 -17.5625 L 5.015625 0 Z M 0.8125 0 "/></g></g></g><g fill="#b7bfc5" fill-opacity="1"><g transform="translate(126.920713, 44.745394)"><g><path d="M 6.109375 0.1875 C 4.191406 0.1875 2.8125 -0.296875 1.96875 -1.265625 C 1.125 -2.242188 0.703125 -3.738281 0.703125 -5.75 L 0.703125 -11.171875 C 0.703125 -12.691406 0.863281 -13.925781 1.1875 -14.875 C 1.507812 -15.832031 2.054688 -16.550781 2.828125 -17.03125 C 3.609375 -17.507812 4.6875 -17.75 6.0625 -17.75 C 7.570312 -17.75 8.796875 -17.351562 9.734375 -16.5625 C 10.679688 -15.78125 11.15625 -14.6875 11.15625 -13.28125 L 11.15625 -10.59375 L 6.890625 -10.59375 L 6.890625 -13.078125 C 6.890625 -13.535156 6.820312 -13.890625 6.6875 -14.140625 C 6.5625 -14.390625 6.316406 -14.515625 5.953125 -14.515625 C 5.265625 -14.515625 4.921875 -14.023438 4.921875 -13.046875 L 4.921875 -4.53125 C 4.921875 -4.132812 5.003906 -3.796875 5.171875 -3.515625 C 5.335938 -3.234375 5.585938 -3.09375 5.921875 -3.09375 C 6.253906 -3.09375 6.503906 -3.226562 6.671875 -3.5 C 6.847656 -3.769531 6.925781 -4.125 6.90625 -4.5625 L 6.890625 -7.5 L 11.15625 -7.5 L 11.15625 -4.4375 C 11.15625 -3 10.6875 -1.867188 9.75 -1.046875 C 8.8125 -0.222656 7.597656 0.1875 6.109375 0.1875 Z M 6.109375 0.1875 "/></g></g></g><g clip-path="url(#id1)"><path fill="#b7bfc5" d="M 34.925781 44.578125 L 29.796875 47.503906 L 24.664062 50.433594 C 23.769531 50.941406 22.320312 50.941406 21.425781 50.433594 L 16.292969 47.503906 L 11.164062 44.578125 C 10.269531 44.070312 9.542969 42.828125 9.542969 41.808594 L 9.542969 30.105469 C 9.542969 29.085938 10.269531 27.84375 11.164062 27.332031 L 16.292969 24.40625 L 21.425781 21.480469 C 22.320312 20.96875 23.769531 20.96875 24.664062 21.480469 L 29.796875 24.40625 L 34.925781 27.332031 C 35.820312 27.84375 36.546875 29.085938 36.546875 30.105469 L 36.546875 41.808594 C 36.546875 42.828125 35.820312 44.070312 34.925781 44.578125 Z M 34.925781 44.578125 " fill-opacity="1" fill-rule="nonzero"/></g></svg>