<svg xmlns="http://www.w3.org/2000/svg" xmlns:xlink="http://www.w3.org/1999/xlink" width="200" zoomAndPan="magnify" viewBox="0 0 150 74.999997" height="100" preserveAspectRatio="xMidYMid meet" version="1.0"><defs><g/><clipPath id="id1"><path d="M 7.546875 21 L 42 21 L 42 52.34375 L 7.546875 52.34375 Z M 7.546875 21 " clip-rule="nonzero"/></clipPath></defs><g clip-path="url(#id1)"><path fill="#b7bfc5" d="M 12.3125 52.34375 L 33.636719 52.34375 C 34.117188 52.335938 34.5 52.210938 34.789062 51.988281 C 35.066406 51.773438 35.363281 51.582031 35.6875 51.441406 C 39.875 49.652344 42.039062 46.539062 41.792969 41.851562 C 41.734375 40.75 41.457031 39.671875 40.953125 38.691406 C 40.015625 36.875 38.457031 35.113281 36.53125 33.378906 C 33.125 30.390625 31.652344 27.617188 33.214844 25.1875 C 33.71875 26.488281 34.765625 26.894531 36.109375 26.820312 C 37.695312 28.550781 39.339844 29.683594 41.105469 29.691406 C 41.242188 29.671875 41.277344 29.589844 41.242188 29.464844 C 41.214844 29.367188 41.152344 29.28125 41.074219 29.21875 C 39.695312 28.097656 38.660156 26.738281 37.898438 25.1875 C 38.140625 23.574219 37.792969 22.308594 36.476562 21.605469 C 34.910156 20.855469 33.246094 20.84375 31.480469 21.605469 C 28.355469 23.101562 27.699219 25.683594 28.957031 29.113281 C 30.0625 31.339844 31.890625 33.714844 34.085938 36.167969 C 34.304688 36.410156 34.5 36.675781 34.667969 36.957031 C 36.367188 39.804688 36.269531 42.332031 34.375 44.546875 C 33.210938 45.722656 32.050781 46.378906 30.894531 46.171875 C 30.441406 46.089844 30.035156 45.84375 29.71875 45.507812 C 27.246094 42.90625 29.460938 38.507812 33.847656 38.59375 C 33.160156 35.167969 17.035156 24.320312 9.253906 26.25 C 9.082031 26.292969 8.929688 26.378906 8.808594 26.503906 C 8.273438 27.039062 7.871094 27.65625 7.550781 28.320312 C 13.066406 28.132812 18.222656 29.804688 23.074219 33.097656 C 23.132812 33.136719 23.183594 33.191406 23.222656 33.253906 C 23.417969 33.578125 23.386719 33.796875 23.121094 33.914062 C 22.972656 33.976562 22.800781 33.957031 22.664062 33.871094 C 17.957031 30.898438 13.367188 29.449219 8.925781 29.886719 C 8.734375 29.902344 8.558594 30.007812 8.441406 30.164062 C 8.144531 30.570312 7.953125 31.015625 7.855469 31.496094 C 12.914062 31.410156 17.300781 32.734375 20.992188 35.53125 C 21.042969 35.570312 21.089844 35.621094 21.117188 35.679688 C 21.167969 35.796875 21.152344 35.890625 21.039062 35.953125 C 20.921875 36.019531 20.78125 36.011719 20.660156 35.953125 C 16.246094 33.691406 12.085938 32.765625 8.300781 33.734375 C 7.847656 33.917969 7.761719 34.566406 7.695312 35.238281 C 12.269531 34.90625 16.222656 36.105469 19.777344 38.289062 C 19.902344 38.363281 19.972656 38.507812 19.945312 38.644531 C 19.921875 38.746094 19.851562 38.832031 19.71875 38.894531 C 19.625 38.9375 19.515625 38.929688 19.421875 38.886719 C 15.820312 37.140625 12.242188 36.515625 8.6875 37.320312 C 8.542969 37.351562 8.414062 37.4375 8.328125 37.558594 C 8.007812 38.011719 7.859375 38.539062 7.867188 39.136719 C 11.980469 38.46875 15.617188 38.835938 18.53125 40.753906 C 18.949219 41.058594 19 41.273438 18.542969 41.363281 C 18.4375 41.382812 18.332031 41.371094 18.234375 41.328125 C 15.359375 40.152344 12.585938 39.65625 9.929688 39.96875 C 9.714844 39.992188 9.507812 40.070312 9.335938 40.203125 C 8.671875 40.695312 8.492188 41.355469 8.789062 42.175781 C 12.101562 41.792969 15.035156 42.035156 17.40625 43.230469 C 17.539062 43.296875 17.65625 43.390625 17.753906 43.503906 C 18.335938 44.167969 18.289062 44.726562 17.414062 45.132812 C 17.335938 45.167969 17.257812 45.195312 17.175781 45.21875 C 15.28125 45.695312 12.273438 44.429688 9.089844 42.902344 C 9.695312 45.191406 11.105469 47.078125 13.0625 48.691406 C 13.15625 48.769531 13.257812 48.839844 13.359375 48.910156 C 13.941406 49.3125 14.160156 49.757812 13.757812 50.277344 C 12.984375 50.960938 12.460938 51.652344 12.3125 52.34375 Z M 12.3125 52.34375 " fill-opacity="1" fill-rule="nonzero"/></g><g fill="#b7bfc5" fill-opacity="1"><g transform="translate(43.630827, 48.080727)"><g><path d="M 7.734375 -6.734375 C 8.441406 -6.566406 8.972656 -6.21875 9.328125 -5.6875 C 9.679688 -5.164062 9.859375 -4.492188 9.859375 -3.671875 C 9.859375 -2.503906 9.460938 -1.597656 8.671875 -0.953125 C 7.878906 -0.316406 6.648438 0 4.984375 0 L 1.53125 0 L 1.53125 -12.734375 L 4.9375 -12.734375 C 7.789062 -12.734375 9.21875 -11.597656 9.21875 -9.328125 C 9.21875 -8.804688 9.09375 -8.300781 8.84375 -7.8125 C 8.59375 -7.332031 8.222656 -6.972656 7.734375 -6.734375 Z M 6.953125 -9.265625 C 6.953125 -9.867188 6.765625 -10.296875 6.390625 -10.546875 C 6.015625 -10.796875 5.53125 -10.921875 4.9375 -10.921875 L 3.828125 -10.921875 L 3.828125 -7.390625 L 5.3125 -7.390625 C 5.707031 -7.390625 6.023438 -7.484375 6.265625 -7.671875 C 6.503906 -7.867188 6.675781 -8.109375 6.78125 -8.390625 C 6.894531 -8.671875 6.953125 -8.960938 6.953125 -9.265625 Z M 5.25 -1.84375 C 5.90625 -1.84375 6.4375 -1.976562 6.84375 -2.25 C 7.25 -2.53125 7.453125 -3.046875 7.453125 -3.796875 C 7.453125 -4.546875 7.238281 -5.050781 6.8125 -5.3125 C 6.394531 -5.570312 5.832031 -5.703125 5.125 -5.703125 L 3.828125 -5.703125 L 3.828125 -1.84375 Z M 5.25 -1.84375 "/></g></g></g><g fill="#b7bfc5" fill-opacity="1"><g transform="translate(54.008282, 48.080727)"><g><path d="M 7.65625 -2.015625 L 7.65625 0 L 1.53125 0 L 1.53125 -12.734375 L 3.859375 -12.734375 L 3.859375 -2.015625 Z M 7.65625 -2.015625 "/></g></g></g><g fill="#b7bfc5" fill-opacity="1"><g transform="translate(62.138505, 48.080727)"><g><path d="M 7.46875 -1.84375 L 2.921875 -1.84375 L 2.25 0 L -0.3125 0 L 5.078125 -12.953125 L 5.265625 -12.953125 L 10.671875 0 L 8.1875 0 Z M 6.796875 -3.609375 L 5.46875 -7.09375 L 5.15625 -8.109375 L 4.859375 -7.09375 L 3.578125 -3.609375 Z M 6.796875 -3.609375 "/></g></g></g><g fill="#b7bfc5" fill-opacity="1"><g transform="translate(72.497677, 48.080727)"><g><path d="M 5.84375 0.21875 C 4.925781 0.21875 4.070312 -0.0234375 3.28125 -0.515625 C 2.5 -1.015625 1.867188 -1.769531 1.390625 -2.78125 C 0.910156 -3.800781 0.671875 -5.054688 0.671875 -6.546875 C 0.671875 -7.890625 0.90625 -9.039062 1.375 -10 C 1.851562 -10.96875 2.5 -11.703125 3.3125 -12.203125 C 4.125 -12.703125 5.035156 -12.953125 6.046875 -12.953125 C 6.660156 -12.953125 7.179688 -12.890625 7.609375 -12.765625 C 8.035156 -12.648438 8.367188 -12.515625 8.609375 -12.359375 C 8.859375 -12.203125 9.09375 -12.019531 9.3125 -11.8125 L 8.296875 -9.90625 C 8.078125 -10.132812 7.882812 -10.3125 7.71875 -10.4375 C 7.5625 -10.5625 7.351562 -10.660156 7.09375 -10.734375 C 6.84375 -10.804688 6.523438 -10.84375 6.140625 -10.84375 C 5.523438 -10.84375 5 -10.664062 4.5625 -10.3125 C 4.125 -9.957031 3.789062 -9.460938 3.5625 -8.828125 C 3.332031 -8.203125 3.21875 -7.484375 3.21875 -6.671875 C 3.21875 -5.640625 3.335938 -4.757812 3.578125 -4.03125 C 3.816406 -3.3125 4.140625 -2.769531 4.546875 -2.40625 C 4.960938 -2.039062 5.425781 -1.859375 5.9375 -1.859375 C 6.476562 -1.859375 6.957031 -1.929688 7.375 -2.078125 C 7.789062 -2.234375 8.109375 -2.429688 8.328125 -2.671875 L 9.328125 -0.859375 C 8.960938 -0.554688 8.515625 -0.300781 7.984375 -0.09375 C 7.460938 0.113281 6.75 0.21875 5.84375 0.21875 Z M 5.84375 0.21875 "/></g></g></g><g fill="#b7bfc5" fill-opacity="1"><g transform="translate(82.126054, 48.080727)"><g><path d="M 7.96875 0 L 3.859375 -6.109375 L 3.859375 0 L 1.53125 0 L 1.53125 -12.734375 L 3.859375 -12.734375 L 3.859375 -6.390625 L 7.90625 -12.734375 L 10.59375 -12.734375 L 6.25 -6.40625 L 10.890625 0 Z M 7.96875 0 "/></g></g></g><g fill="#b7bfc5" fill-opacity="1"><g transform="translate(93.015068, 48.080727)"><g/></g></g><g fill="#b7bfc5" fill-opacity="1"><g transform="translate(96.486393, 48.080727)"><g><path d="M 4.640625 0.203125 C 4.078125 0.203125 3.539062 0.132812 3.03125 0 C 2.53125 -0.132812 2.09375 -0.304688 1.71875 -0.515625 C 1.34375 -0.734375 1.046875 -0.957031 0.828125 -1.1875 L 1.75 -3.109375 C 1.894531 -2.921875 2.109375 -2.722656 2.390625 -2.515625 C 2.679688 -2.304688 3.007812 -2.128906 3.375 -1.984375 C 3.738281 -1.835938 4.101562 -1.765625 4.46875 -1.765625 C 4.957031 -1.765625 5.363281 -1.894531 5.6875 -2.15625 C 6.007812 -2.425781 6.171875 -2.800781 6.171875 -3.28125 C 6.171875 -3.59375 6.09375 -3.863281 5.9375 -4.09375 C 5.789062 -4.320312 5.59375 -4.523438 5.34375 -4.703125 C 5.101562 -4.890625 4.726562 -5.132812 4.21875 -5.4375 C 3.519531 -5.863281 2.972656 -6.226562 2.578125 -6.53125 C 2.179688 -6.832031 1.835938 -7.226562 1.546875 -7.71875 C 1.253906 -8.207031 1.109375 -8.800781 1.109375 -9.5 C 1.109375 -10.175781 1.253906 -10.773438 1.546875 -11.296875 C 1.835938 -11.816406 2.265625 -12.222656 2.828125 -12.515625 C 3.398438 -12.804688 4.082031 -12.953125 4.875 -12.953125 C 6.175781 -12.953125 7.257812 -12.554688 8.125 -11.765625 L 7.109375 -9.90625 C 7.003906 -10.050781 6.847656 -10.207031 6.640625 -10.375 C 6.429688 -10.550781 6.179688 -10.703125 5.890625 -10.828125 C 5.597656 -10.953125 5.289062 -11.015625 4.96875 -11.015625 C 4.5 -11.015625 4.132812 -10.878906 3.875 -10.609375 C 3.613281 -10.335938 3.484375 -10 3.484375 -9.59375 C 3.484375 -9.28125 3.5625 -9.003906 3.71875 -8.765625 C 3.875 -8.523438 4.078125 -8.3125 4.328125 -8.125 C 4.585938 -7.9375 4.929688 -7.710938 5.359375 -7.453125 C 6.128906 -6.992188 6.71875 -6.609375 7.125 -6.296875 C 7.53125 -5.984375 7.867188 -5.585938 8.140625 -5.109375 C 8.421875 -4.640625 8.5625 -4.054688 8.5625 -3.359375 C 8.5625 -2.617188 8.398438 -1.976562 8.078125 -1.4375 C 7.765625 -0.90625 7.3125 -0.5 6.71875 -0.21875 C 6.132812 0.0625 5.441406 0.203125 4.640625 0.203125 Z M 4.640625 0.203125 "/></g></g></g><g fill="#b7bfc5" fill-opacity="1"><g transform="translate(105.694558, 48.080727)"><g><path d="M 14.8125 -12.734375 L 10.59375 0.03125 L 10.296875 0.03125 L 7.3125 -7.28125 L 4.390625 0.015625 L 4.078125 0.015625 L -0.1875 -12.734375 L 2.34375 -12.734375 L 4.5625 -5.34375 L 7.21875 -12.734375 L 7.53125 -12.734375 L 10.21875 -5.375 L 12.3125 -12.734375 Z M 14.8125 -12.734375 "/></g></g></g><g fill="#b7bfc5" fill-opacity="1"><g transform="translate(120.328936, 48.080727)"><g><path d="M 7.46875 -1.84375 L 2.921875 -1.84375 L 2.25 0 L -0.3125 0 L 5.078125 -12.953125 L 5.265625 -12.953125 L 10.671875 0 L 8.1875 0 Z M 6.796875 -3.609375 L 5.46875 -7.09375 L 5.15625 -8.109375 L 4.859375 -7.09375 L 3.578125 -3.609375 Z M 6.796875 -3.609375 "/></g></g></g><g fill="#b7bfc5" fill-opacity="1"><g transform="translate(130.688108, 48.080727)"><g><path d="M 10.546875 -12.734375 L 10.546875 0.25 L 10.359375 0.25 L 4.25 -6.703125 L 3.6875 -7.4375 L 3.78125 -5.65625 L 3.78125 0 L 1.53125 0 L 1.53125 -12.953125 L 1.734375 -12.953125 L 7.75 -5.9375 L 8.390625 -5.109375 L 8.296875 -6.84375 L 8.296875 -12.734375 Z M 10.546875 -12.734375 "/></g></g></g></svg>