<svg xmlns="http://www.w3.org/2000/svg" xmlns:xlink="http://www.w3.org/1999/xlink" width="200" zoomAndPan="magnify" viewBox="0 0 150 74.999997" height="100" preserveAspectRatio="xMidYMid meet" version="1.0"><defs><g/><clipPath id="id1"><path d="M 30 28 L 56 28 L 56 54 L 30 54 Z M 30 28 " clip-rule="nonzero"/></clipPath><clipPath id="id2"><path d="M 41.765625 27.671875 L 56.003906 39.871094 L 43.804688 54.109375 L 29.566406 41.910156 Z M 41.765625 27.671875 " clip-rule="nonzero"/></clipPath><clipPath id="id3"><path d="M 39.121094 37.015625 L 46.621094 37.015625 L 46.621094 44.515625 L 39.121094 44.515625 Z M 39.121094 37.015625 " clip-rule="nonzero"/></clipPath></defs><g clip-path="url(#id1)"><g clip-path="url(#id2)"><path fill="#b7bfc5" d="M 54.695312 39.523438 C 54.960938 39.75 54.992188 40.152344 54.765625 40.417969 L 44.152344 52.804688 C 43.925781 53.070312 43.523438 53.101562 43.257812 52.871094 L 30.871094 42.261719 C 30.605469 42.035156 30.574219 41.628906 30.800781 41.367188 L 41.414062 28.980469 C 41.640625 28.714844 42.046875 28.683594 42.308594 28.910156 L 54.695312 39.523438 M 55.078125 39.078125 L 42.691406 28.464844 C 42.179688 28.027344 41.40625 28.089844 40.972656 28.597656 L 30.359375 40.984375 C 29.921875 41.496094 29.980469 42.265625 30.492188 42.703125 L 42.878906 53.316406 C 43.386719 53.753906 44.160156 53.695312 44.597656 53.183594 L 55.210938 40.796875 C 55.644531 40.289062 55.585938 39.515625 55.078125 39.078125 " fill-opacity="1" fill-rule="nonzero"/></g></g><g clip-path="url(#id3)"><path fill="#9aa7b2" d="M 46.449219 43.613281 C 46.449219 44.003906 46.105469 44.320312 45.742188 44.320312 L 39.832031 44.320312 C 39.730469 44.320312 39.628906 44.296875 39.539062 44.257812 C 39.65625 44.382812 39.820312 44.457031 40.003906 44.457031 L 45.914062 44.457031 C 46.269531 44.457031 46.566406 44.164062 46.566406 43.804688 L 46.566406 37.917969 C 46.566406 37.75 46.503906 37.605469 46.40625 37.492188 C 46.4375 37.566406 46.449219 37.644531 46.449219 37.722656 L 46.449219 43.613281 " fill-opacity="1" fill-rule="nonzero"/><path fill="#c7d0d8" d="M 39.832031 44.265625 L 45.730469 44.265625 C 46.089844 44.265625 46.386719 43.96875 46.386719 43.613281 L 46.386719 37.722656 C 46.386719 37.367188 46.089844 37.070312 45.730469 37.070312 L 39.832031 37.070312 C 39.476562 37.070312 39.179688 37.367188 39.179688 37.722656 L 39.179688 43.613281 C 39.179688 43.976562 39.476562 44.265625 39.832031 44.265625 " fill-opacity="1" fill-rule="nonzero"/><path fill="#77838d" d="M 46.332031 37.347656 C 46.207031 37.148438 45.988281 37.015625 45.730469 37.015625 L 39.832031 37.015625 C 39.441406 37.015625 39.125 37.332031 39.125 37.722656 L 39.125 43.613281 C 39.125 43.84375 39.238281 44.050781 39.40625 44.179688 C 39.53125 44.378906 39.753906 44.515625 40.007812 44.515625 L 45.90625 44.515625 C 46.300781 44.515625 46.617188 44.195312 46.617188 43.804688 L 46.617188 37.917969 C 46.617188 37.683594 46.503906 37.480469 46.332031 37.347656 M 39.179688 43.613281 L 39.179688 37.722656 C 39.179688 37.367188 39.476562 37.070312 39.832031 37.070312 L 45.730469 37.070312 C 46.089844 37.070312 46.386719 37.367188 46.386719 37.722656 L 46.386719 43.613281 C 46.386719 43.96875 46.089844 44.265625 45.730469 44.265625 L 39.832031 44.265625 C 39.476562 44.265625 39.179688 43.976562 39.179688 43.613281 M 46.566406 43.804688 C 46.566406 44.164062 46.265625 44.457031 45.90625 44.457031 L 40.007812 44.457031 C 39.828125 44.457031 39.664062 44.382812 39.542969 44.257812 C 39.632812 44.296875 39.730469 44.320312 39.839844 44.320312 L 45.738281 44.320312 C 46.128906 44.320312 46.449219 44.003906 46.449219 43.613281 L 46.449219 37.722656 C 46.449219 37.644531 46.429688 37.566406 46.40625 37.492188 C 46.503906 37.605469 46.566406 37.75 46.566406 37.917969 L 46.566406 43.804688 " fill-opacity="1" fill-rule="nonzero"/></g><g fill="#b7bfc5" fill-opacity="1"><g transform="translate(59.908105, 47.536447)"><g><path d="M 12.75 -7.1875 C 12.75 -5.488281 12.457031 -4.039062 11.875 -2.84375 C 11.300781 -1.65625 10.46875 -0.800781 9.375 -0.28125 L 10.9375 2.28125 L 8.578125 3.5625 L 7 0.25 L 6.796875 0.25 C 5.523438 0.25 4.4375 -0.0507812 3.53125 -0.65625 C 2.632812 -1.269531 1.953125 -2.132812 1.484375 -3.25 C 1.023438 -4.363281 0.796875 -5.675781 0.796875 -7.1875 C 0.796875 -8.6875 1.023438 -9.992188 1.484375 -11.109375 C 1.941406 -12.222656 2.613281 -13.082031 3.5 -13.6875 C 4.394531 -14.300781 5.472656 -14.609375 6.734375 -14.609375 C 8.046875 -14.609375 9.148438 -14.300781 10.046875 -13.6875 C 10.953125 -13.070312 11.628906 -12.207031 12.078125 -11.09375 C 12.523438 -9.976562 12.75 -8.675781 12.75 -7.1875 Z M 3.5625 -7.234375 C 3.5625 -6.066406 3.691406 -5.085938 3.953125 -4.296875 C 4.222656 -3.515625 4.597656 -2.925781 5.078125 -2.53125 C 5.566406 -2.144531 6.140625 -1.953125 6.796875 -1.953125 C 7.410156 -1.953125 7.957031 -2.144531 8.4375 -2.53125 C 8.925781 -2.925781 9.3125 -3.519531 9.59375 -4.3125 C 9.875 -5.113281 10.015625 -6.09375 10.015625 -7.25 C 10.015625 -8.945312 9.726562 -10.238281 9.15625 -11.125 C 8.582031 -12.019531 7.773438 -12.46875 6.734375 -12.46875 C 5.722656 -12.46875 4.941406 -12.019531 4.390625 -11.125 C 3.835938 -10.238281 3.5625 -8.941406 3.5625 -7.234375 Z M 3.5625 -7.234375 "/></g></g></g><g fill="#b7bfc5" fill-opacity="1"><g transform="translate(73.464756, 47.536447)"><g><path d="M 6.46875 0.265625 C 4.90625 0.265625 3.660156 -0.148438 2.734375 -0.984375 C 1.816406 -1.816406 1.359375 -3.195312 1.359375 -5.125 L 1.359375 -14.359375 L 4.046875 -14.359375 L 4.046875 -4.84375 C 4.046875 -3.757812 4.28125 -3.007812 4.75 -2.59375 C 5.226562 -2.1875 5.789062 -1.984375 6.4375 -1.984375 C 7.082031 -1.984375 7.628906 -2.179688 8.078125 -2.578125 C 8.535156 -2.984375 8.765625 -3.738281 8.765625 -4.84375 L 8.765625 -14.359375 L 11.4375 -14.359375 L 11.4375 -5.125 C 11.4375 -3.195312 10.984375 -1.816406 10.078125 -0.984375 C 9.179688 -0.148438 7.976562 0.265625 6.46875 0.265625 Z M 6.46875 0.265625 "/></g></g></g><g fill="#b7bfc5" fill-opacity="1"><g transform="translate(86.259108, 47.536447)"><g><path d="M 8.421875 -2.078125 L 3.296875 -2.078125 L 2.53125 0 L -0.34375 0 L 5.734375 -14.609375 L 5.9375 -14.609375 L 12.03125 0 L 9.234375 0 Z M 7.671875 -4.078125 L 6.15625 -8 L 5.8125 -9.15625 L 5.484375 -8 L 4.046875 -4.078125 Z M 7.671875 -4.078125 "/></g></g></g><g fill="#b7bfc5" fill-opacity="1"><g transform="translate(97.940898, 47.536447)"><g><path d="M 5.375 -14.359375 C 7.476562 -14.359375 9.085938 -13.769531 10.203125 -12.59375 C 11.328125 -11.414062 11.890625 -9.671875 11.890625 -7.359375 C 11.890625 -5.847656 11.632812 -4.539062 11.125 -3.4375 C 10.625 -2.34375 9.882812 -1.492188 8.90625 -0.890625 C 7.925781 -0.296875 6.742188 0 5.359375 0 L 1.671875 0 L 1.671875 -14.359375 Z M 5.296875 -2.265625 C 6.242188 -2.265625 7.007812 -2.5 7.59375 -2.96875 C 8.175781 -3.4375 8.59375 -4.046875 8.84375 -4.796875 C 9.09375 -5.546875 9.21875 -6.378906 9.21875 -7.296875 C 9.21875 -8.753906 8.910156 -9.953125 8.296875 -10.890625 C 7.679688 -11.828125 6.679688 -12.296875 5.296875 -12.296875 L 4.328125 -12.296875 L 4.328125 -2.265625 Z M 5.296875 -2.265625 "/></g></g></g><g fill="#b7bfc5" fill-opacity="1"><g transform="translate(110.446813, 47.536447)"><g><path d="M 8.03125 0 L 4.34375 -5.1875 L 4.34375 0 L 1.734375 0 L 1.734375 -14.359375 L 5.734375 -14.359375 C 9.140625 -14.359375 10.84375 -12.835938 10.84375 -9.796875 C 10.84375 -9.109375 10.734375 -8.4375 10.515625 -7.78125 C 10.296875 -7.125 9.9375 -6.539062 9.4375 -6.03125 C 8.9375 -5.53125 8.296875 -5.179688 7.515625 -4.984375 L 11.234375 0 Z M 5.4375 -6.484375 C 6.019531 -6.484375 6.519531 -6.625 6.9375 -6.90625 C 7.351562 -7.1875 7.664062 -7.554688 7.875 -8.015625 C 8.09375 -8.484375 8.203125 -8.992188 8.203125 -9.546875 C 8.203125 -10.492188 7.984375 -11.1875 7.546875 -11.625 C 7.109375 -12.070312 6.382812 -12.296875 5.375 -12.296875 L 4.34375 -12.296875 L 4.34375 -6.484375 Z M 5.4375 -6.484375 "/></g></g></g><g fill="#b7bfc5" fill-opacity="1"><g transform="translate(122.334622, 47.536447)"><g><path d="M 8.421875 -2.078125 L 3.296875 -2.078125 L 2.53125 0 L -0.34375 0 L 5.734375 -14.609375 L 5.9375 -14.609375 L 12.03125 0 L 9.234375 0 Z M 7.671875 -4.078125 L 6.15625 -8 L 5.8125 -9.15625 L 5.484375 -8 L 4.046875 -4.078125 Z M 7.671875 -4.078125 "/></g></g></g></svg>